HIERARCHY
ROOT Hips
{
	OFFSET 0.0000 0.0000 0.0000
	CHANNELS 6 Xposition Yposition Zposition Zrotation Xrotation Yrotation
	JOINT Ab
	{
		OFFSET -0.0000 8.0846 -0.0000
		CHANNELS 3 Zrotation Xrotation Yrotation
		JOINT Chest
		{
			OFFSET -0.0000 25.0068 -0.0000
			CHANNELS 3 Zrotation Xrotation Yrotation
			JOINT Neck
			{
				OFFSET -0.0000 25.0068 0.0000
				CHANNELS 3 Zrotation Xrotation Yrotation
				JOINT Head
				{
					OFFSET -0.0000 10.7556 0.0000
					CHANNELS 3 Zrotation Xrotation Yrotation
					End Site
					{
						OFFSET -0.0000 16.6222 0.0000
					}
				}
			}
			JOINT LeftCollar
			{
				OFFSET -0.0000 25.0068 0.0000
				CHANNELS 3 Zrotation Xrotation Yrotation
				JOINT LeftShoulder
				{
					OFFSET 19.5556 -0.0000 0.0000
					CHANNELS 3 Zrotation Xrotation Yrotation
					JOINT LeftElbow
					{
						OFFSET 27.1828 0.0000 0.0000
						CHANNELS 3 Zrotation Xrotation Yrotation
						JOINT LeftWrist
						{
							OFFSET 23.3157 0.0000 0.0000
							CHANNELS 3 Zrotation Xrotation Yrotation
							End Site
							{
								OFFSET 0.0000 -14.6667 0.0000
							}
						}
					}
				}
			}
			JOINT RightCollar
			{
				OFFSET -0.0000 25.0068 0.0000
				CHANNELS 3 Zrotation Xrotation Yrotation
				JOINT RightShoulder
				{
					OFFSET -19.5556 0.0000 0.0000
					CHANNELS 3 Zrotation Xrotation Yrotation
					JOINT RightElbow
					{
						OFFSET -27.1828 0.0000 0.0000
						CHANNELS 3 Zrotation Xrotation Yrotation
						JOINT RightWrist
						{
							OFFSET -23.3157 0.0000 0.0000
							CHANNELS 3 Zrotation Xrotation Yrotation
							End Site
							{
								OFFSET -0.0000 -14.6667 0.0000
							}
						}
					}
				}
			}
		}
	}
	JOINT LeftHip
	{
		OFFSET 11.7333 0.0000 0.0000
		CHANNELS 3 Zrotation Xrotation Yrotation
		JOINT LeftKnee
		{
			OFFSET -0.0000 -40.8688 0.0000
			CHANNELS 3 Zrotation Xrotation Yrotation
			JOINT LeftAnkle
			{
				OFFSET -0.0000 -44.4337 0.0000
				CHANNELS 3 Zrotation Xrotation Yrotation
				End Site
				{
					OFFSET -0.0000 -4.8889 16.6222
				}
			}
		}
	}
	JOINT RightHip
	{
		OFFSET -11.7333 0.0000 0.0000
		CHANNELS 3 Zrotation Xrotation Yrotation
		JOINT RightKnee
		{
			OFFSET -0.0000 -40.8688 0.0000
			CHANNELS 3 Zrotation Xrotation Yrotation
			JOINT RightAnkle
			{
				OFFSET -0.0000 -44.4337 0.0000
				CHANNELS 3 Zrotation Xrotation Yrotation
				End Site
				{
					OFFSET -0.0000 -4.8889 16.6222
				}
			}
		}
	}
}
MOTION
Frames: 16
Frame Time: 0.010000
0.2163 83.8711 87.4762 0.9552 354.0561 185.5905 2.3760 8.4406 352.8769 5.4954 8.1596 352.6603 7.7564 340.8729 4.2317 354.7063 7.7624 3.3056 338.3235 358.4062 8.3211 326.9017 50.3832 328.3054 33.1294 349.2219 324.5063 82.8650 355.4396 1.5706 19.6476 358.6293 352.2650 63.3932 34.4977 356.3185 342.1623 355.4285 28.3880 279.3419 352.9566 24.3488 3.8775 7.1379 353.6884 358.9067 15.0813 352.9354 351.9443 336.9256 20.7589 2.7221 320.3383 7.6215 2.8509 41.7654 3.3340 353.4990 349.1160 336.3424 
0.4211 83.8855 87.1083 0.9558 353.9600 185.5863 2.4162 8.4898 352.8676 5.4742 8.1914 352.6548 7.7054 340.8769 4.2365 354.8929 7.5979 3.2971 338.3337 358.3817 8.4009 327.1768 50.5507 327.9939 33.3255 349.1281 324.6881 83.2089 355.1870 1.8667 19.6244 358.6726 352.4892 63.2331 34.7912 356.6359 342.0902 355.4203 28.4287 278.9558 352.9445 23.9250 3.9939 7.1696 353.7787 358.9230 15.2570 352.6857 353.3360 336.8675 21.5071 3.0127 320.3862 7.7218 2.7098 41.9920 3.6112 353.3074 348.9154 336.1471 
0.5885 83.9279 86.7589 0.9123 353.7628 185.5941 2.5022 8.4045 352.8347 5.2859 8.2239 352.6384 7.7687 340.8683 4.2526 355.0021 7.4800 3.2861 338.3577 358.3742 8.5410 327.7785 51.0020 327.4464 33.7225 348.9951 325.0650 82.7120 355.0773 2.1807 19.6627 358.6886 352.6706 63.1079 35.1723 356.9635 341.8513 355.3340 28.4276 278.8148 352.9296 23.5055 4.0083 6.9997 354.2605 359.0670 15.5327 352.4060 352.6903 336.9690 21.1237 3.1815 320.3552 7.7648 2.5855 42.1749 3.9091 353.0682 348.7113 335.9250 
0.7782 83.9664 86.3969 0.9253 353.6819 185.6335 2.5684 8.4070 352.8158 5.2104 8.2165 352.6302 7.7187 340.9705 4.2319 355.1699 7.3174 3.2625 338.2793 358.3396 8.7868 328.8789 51.7443 326.3806 34.1905 348.9724 325.7767 83.1455 354.8140 3.0314 19.6719 358.7255 352.8564 62.9467 35.3658 357.2705 341.7649 355.3208 28.4568 278.6880 352.7936 23.3701 4.1233 6.9815 354.2732 359.0484 15.7614 352.5142 352.6107 337.0698 21.1147 3.4497 320.4543 7.8533 2.4364 42.3229 4.0917 352.8225 348.5291 335.7855 
0.9672 84.0440 85.9952 0.9562 353.6146 185.6929 2.6200 8.2975 352.8040 5.1621 8.3800 352.6155 7.6875 340.8581 4.2191 355.2807 7.3233 3.2408 338.3072 358.3321 8.6973 328.3721 51.3501 326.7774 33.9970 349.1582 325.5425 83.4453 355.1203 3.2046 19.6896 358.7524 352.9166 62.5633 35.4399 357.7411 341.8170 355.3107 28.7947 278.5892 352.9006 23.4114 4.2633 7.0254 354.3656 359.0371 15.8854 352.4994 352.3008 337.1439 21.1763 3.7016 320.6946 8.0095 2.3930 42.2850 4.1856 352.5594 348.3541 335.5385 
1.1433 84.1091 85.6860 0.9643 353.4744 185.7847 2.6427 8.1630 352.7871 5.1071 8.5277 352.5946 7.6651 340.6913 4.1984 355.4014 7.3124 3.2046 338.3007 358.3058 8.8963 329.0840 51.8052 325.9745 34.4317 349.0811 326.0326 83.2210 354.9451 3.6275 19.6771 358.7888 352.9591 62.3480 35.6401 358.2493 341.7403 355.2395 28.8234 278.5063 352.8556 23.4383 4.3620 6.8819 354.4165 359.0135 16.0188 352.6154 351.8917 337.2686 21.0962 3.8810 320.7857 8.0396 2.2680 42.2818 4.3128 352.3845 348.2301 335.4004 
1.3013 84.1841 85.4117 0.9601 353.4490 185.7391 2.6569 8.2075 352.8437 5.0060 8.5071 352.6617 7.6332 340.7326 4.1929 355.5469 7.1773 3.1951 338.3070 358.2848 8.8958 328.7804 51.6245 326.2197 34.3892 349.1602 325.9801 83.4189 355.1339 3.6544 19.6635 358.8105 353.1051 62.2588 35.6943 358.4927 341.6411 355.2277 28.9392 278.5039 352.8295 23.5227 4.4340 6.9254 354.6059 359.0172 15.9806 352.8092 351.4783 337.3831 20.9363 4.1214 320.9907 8.2208 2.1811 42.2347 4.3940 352.2925 348.0957 335.2846 
1.4592 84.3290 85.0906 0.8512 353.1102 185.7488 2.5689 7.9541 352.8769 4.8786 8.4089 352.6964 7.5921 340.8382 4.1282 355.6312 7.0403 3.1284 338.3091 358.3032 8.8991 328.6356 51.6534 326.3099 34.3137 349.2660 326.1993 83.4399 355.2419 3.6892 19.6898 358.8349 353.1644 62.0725 35.9047 358.9419 341.3999 355.1379 28.9162 278.6668 352.5302 23.4494 4.3373 6.5556 354.7781 359.0756 15.9878 352.7989 350.7614 337.7515 20.7826 4.1844 320.9330 8.2554 2.0457 42.1974 4.6470 352.0657 347.9243 335.0803 
1.6280 84.4633 84.7214 0.8169 352.9602 185.7784 2.5453 7.8266 352.9028 4.8060 8.3677 352.7247 7.4816 340.8900 4.0907 355.7721 6.9684 3.1076 338.2997 358.2926 8.8577 327.9890 51.3351 326.8493 34.0682 349.4177 326.2552 83.5973 355.2643 3.5823 19.6828 358.8195 353.2774 61.8859 36.0551 359.3346 341.2351 355.0745 29.0530 278.5617 352.5628 23.2987 4.3540 6.3605 354.9084 359.0919 15.9541 352.8778 350.6962 338.0119 20.7770 4.3437 321.1383 8.3559 1.9565 42.0479 4.7068 351.8297 347.7431 334.9338 
1.7828 84.5984 84.4057 0.8091 352.8245 185.8727 2.5544 7.7200 352.9188 4.7059 8.3042 352.7493 7.4148 340.9474 4.0154 355.8192 6.8791 3.0350 338.3808 358.3491 8.4435 326.0157 49.9096 328.6205 33.0055 349.7529 325.4529 83.9340 355.5680 2.4857 19.6800 358.8434 353.3009 61.7068 36.2474 359.7595 341.1458 355.0363 29.0993 278.4293 352.6781 23.0856 4.4065 6.1155 355.0738 359.1204 15.8656 353.2119 350.8233 338.2638 20.5556 4.4346 321.3936 8.6262 2.1088 41.7488 4.3807 351.7561 347.6363 334.8765 
1.9285 84.7453 84.0812 0.7864 352.7460 185.9465 2.4878 7.6303 352.9849 4.6921 8.2974 352.8102 7.3474 340.9626 3.9466 355.8318 6.8044 2.9762 338.4036 358.4042 8.1646 324.6554 48.9940 329.8579 32.3005 349.8339 324.8746 84.0644 355.8114 1.6024 19.6222 358.8357 353.3279 61.6016 36.5161 0.1828 340.8704 354.9537 29.0438 278.4264 352.5215 22.7445 4.4415 5.9357 355.1601 359.0943 15.7474 353.3723 350.8169 338.2386 20.5019 4.5113 321.7152 8.5424 1.9522 41.4783 4.6524 351.6666 347.5074 334.7040 
2.0664 84.9030 83.7710 0.7450 352.6632 186.0124 2.4517 7.5354 353.0347 4.5979 8.2635 352.8635 7.2701 340.9579 3.8746 355.8568 6.7737 2.9139 338.4106 358.4327 8.1116 324.1240 48.6881 330.2596 31.9749 349.8325 324.8804 84.0046 355.7995 1.2070 19.5895 358.8574 353.3773 61.5219 36.6606 0.5311 340.6901 354.9123 29.0809 278.2672 352.5433 22.5025 4.4336 5.7011 355.2730 359.0348 15.6122 353.8506 350.5303 338.5591 20.2043 4.5579 322.0430 8.4709 1.8398 41.1622 4.7919 351.5126 347.3690 334.5619 
2.2040 85.0712 83.4507 0.7025 352.6739 186.0474 2.4268 7.5180 353.1032 4.4751 8.2179 352.9405 7.1970 340.9869 3.8058 355.8818 6.7330 2.8572 338.4208 358.4547 8.0720 323.4696 48.2656 330.8013 31.5659 349.9019 324.7705 83.9851 355.8596 0.7248 19.5790 358.8821 353.4495 61.4174 36.7721 0.8609 340.5332 354.8699 29.1478 278.1044 352.6190 22.2893 4.4385 5.5730 355.4364 359.0786 15.4002 353.8270 351.4162 338.9823 20.5504 4.6248 322.4966 8.4607 1.7830 40.7899 4.6955 351.3390 347.1838 334.5360 
2.3279 85.2401 83.1375 0.6559 352.7297 186.0688 2.4248 7.5560 353.1934 4.3214 8.1256 353.0459 7.1082 341.0721 3.7148 355.9040 6.6400 2.7804 338.4272 358.4505 8.1261 323.1230 48.3428 331.1281 31.4958 349.8731 324.8173 83.9289 355.9092 0.6980 19.5728 358.8824 353.5011 61.3098 36.9005 1.1552 340.3378 354.7984 29.2546 277.9485 352.6583 21.9411 4.4263 5.4127 355.5375 359.0915 15.2962 353.8557 351.1722 339.1263 20.5379 4.6727 323.0003 8.4105 1.6935 40.3796 4.8013 351.2964 347.0731 334.4595 
2.4497 85.4092 82.8342 0.6278 352.7100 186.1438 2.3977 7.4661 353.2972 4.2254 8.1026 353.1537 7.0141 341.0858 3.6077 355.9120 6.5763 2.6865 338.5190 358.5035 7.7345 321.3208 46.9574 332.8155 30.4653 350.1825 323.8639 84.1486 356.1848 359.6453 19.5312 358.8774 353.5141 61.2250 37.0175 1.4413 340.1049 354.6992 29.4260 277.8964 352.6564 21.5165 4.4338 5.1217 355.5550 359.0482 15.1878 354.0292 350.8497 339.4199 20.4097 4.6938 323.4416 8.3208 1.6141 39.9312 4.8728 351.2061 347.0187 334.3956 
2.5651 85.5752 82.5397 0.6047 352.6732 186.2140 2.3677 7.3337 353.4124 4.1309 8.1064 353.2709 6.9237 341.0450 3.4941 355.9123 6.5680 2.5849 338.5625 358.5495 7.5735 320.3128 46.2677 333.7814 29.9234 350.1793 323.2988 83.6498 356.2665 358.6251 19.4835 358.8784 353.5235 61.1285 37.1619 1.7277 339.9286 354.6310 29.5434 277.7078 352.4980 21.2111 4.4182 4.7707 355.6235 359.0659 15.0869 354.1117 351.3061 339.8995 20.5086 4.7177 323.8709 8.2882 1.5793 39.4441 4.7793 351.2185 346.9478 334.4446 
